<?xml version="1.0" encoding="UTF-8"?>
<svg id="Layer_1" data-name="Layer 1" xmlns="http://www.w3.org/2000/svg" viewBox="0 0 111.56 111.56">
  <defs>
    <style>
      .cls-1 {
        fill: #fff;
      }

      .cls-2 {
        fill: #d30001;
      }
    </style>
  </defs>
  <circle class="cls-2" cx="55.78" cy="55.78" r="55.78"/>
  <path class="cls-1" d="M99,50.36v4.11h-7.3v1.9h3.68c1.97,0,4.07,1.47,4.2,3.97v.24s0,1.58,0,1.58c-.09,3.01-2.54,4.14-4.07,4.2h-.13s-7.39,0-7.39,0v-4.09l7.48-.02v-1.99h-1.19s-.35,0-.35,0h-.08s-.13,0-.13,0h-.04s-.06,0-.06,0h-.02s.01,0,.03,0h.05s.07,0,.11,0h.08s-.16,0-.16,0c-.31,0-.85,0-1.73,0-1.78,0-4.08-1.34-4.22-3.95v-.25s0-1.42,0-1.42c0-2.7,2.28-4.18,4.07-4.27h.16s7.01,0,7.01,0Zm-18.69,0v11.87h6.17v4.14h-10.74v-16h4.57Zm-6.44,0v16h-4.59v-16h4.59Zm-10.8,0c1.06,0,4.05,.73,4.2,3.95v.25s0,11.8,0,11.8h-4.27v-2.83h-4.14v2.83h-4.41v-11.8c0-1.32,1-4.05,3.95-4.2h.26s4.41,0,4.41,0Zm-24.15,0h8.58c.18,.02,4.75,.57,4.75,5.54s-3.78,5.39-3.92,5.41h0s5.01,5.05,5.01,5.05h-6.37l-3.73-3.86v3.86h-4.31v-16Zm22.42-2.7l.03,.03s-.38,.27-.79,.61c-12.84-9.49-20.68-5.02-23.14-3.82-11.19,6.24-7.95,21.57-7.89,21.87h0s-17.86,0-17.86,0c0,0,.68-6.69,5.42-14.6,4.75-7.91,12.84-13.9,19.41-14.49,12.68-1.27,24.11,9.71,24.81,10.39h0Zm-31.11,14.18l2.44,.88c.11,.89,.27,1.72,.44,2.49l.1,.45-2.71-.97c-.11-.68-.23-1.65-.27-2.85Zm31.51-7.66h-1.51c-1.13,0-1.33,.59-1.37,.8v.06s0,.02,0,.02v3.92s4.14,0,4.14,0v-3.92c0-.08-.08-.88-1.24-.88Zm-50.49,.34l2.6,.95c-.32,.73-.72,1.67-1.01,2.41l-.12,.3-2.6-.95c.23-.61,.7-1.74,1.13-2.71h0Zm35.45-.14h-3.46v3.66h3.43s.99-.38,.99-1.84-.97-1.82-.97-1.82Zm-15.44-.76l1.63,1.29c-.18,.71-.32,1.41-.41,2.12l-.06,.53-1.83-1.45c.18-.81,.38-1.65,.68-2.49h0Zm4-6.31l1.02,1.54c-.4,.42-.77,.83-1.1,1.27l-.24,.33-1.08-1.63c.41-.52,.88-1.04,1.4-1.51h0Zm-16.18-3.35l1.6,1.4c-.41,.42-.8,.87-1.17,1.33l-.36,.46-1.74-1.49c.52-.57,1.08-1.13,1.67-1.7h0Zm22.4-.09l.5,1.49c-.52,.16-1.05,.37-1.57,.61l-.39,.18-.52-1.56c.57-.25,1.22-.5,1.99-.72h0Zm5.29-.54c.58,.04,1.17,.1,1.78,.21l.46,.09-.09,1.4c-.6-.13-1.19-.21-1.79-.25l-.45-.02,.09-1.42Zm-18.56-6.24l1.02,1.56c-.44,.22-.87,.47-1.3,.73l-.44,.27-1.04-1.58c.61-.36,1.2-.68,1.76-.97h0Zm18.6-.86c1.34,.38,1.92,.65,2.16,.77l.04,.02-.09,1.51c-.48-.2-.96-.38-1.45-.56l-.74-.26,.09-1.49Zm-8.63-1.33l.45,1.38h-.23c-.49,0-.98,.01-1.47,.05l-.49,.04-.43-1.33c.75-.09,1.47-.14,2.17-.14Z"/>
</svg>